# xmcd CD database file
#
# Track frame offsets:
#	150
#	17909
#	37804
#	51330
#	69044
#	88938
#
# Disc length: 1365 seconds
#
# Revision: 4
# Processed by: cddbd v1.5.2PL0 Copyright (c) Steve Scherf et al.
# Submitted via: CDex 1.70beta3
#
DISCID=44055306
DTITLE=Various Artist - すもももももも ～地上最強のヨメ～ キャクターソングCD1 LACA-5582
DYEAR=2006
DGENRE=Anime
TTITLE0=鹿野優以/実力あいあい
TTITLE1=宮崎羽衣/乙女ちっくに斬りたいの
TTITLE2=平野綾/フツウの恋～走れイインチョー!～
TTITLE3=九頭竜もも子（鹿野優以）/実力あいあい instrumental
TTITLE4=巳屋本いろは（宮崎羽衣）/乙女ちっくに斬りたいの instrumental
TTITLE5=中島早苗（平野綾）/フツウの恋～走れイインチョー!～ instrumental
EXTD=YEAR: 2006
EXTT0=
EXTT1=
EXTT2=
EXTT3=
EXTT4=
EXTT5=
PLAYORDER=
